<svg viewBox="0 0 200 200" fill="none" xmlns="http://www.w3.org/2000/svg">
  <defs>
    <linearGradient id="ashFaceTop" x1="100" y1="20" x2="100" y2="95" gradientUnits="userSpaceOnUse">
      <stop offset="0%" stopColor="#38BDF8" />
      <stop offset="100%" stopColor="#00E5FF" />
    </linearGradient>
    <linearGradient id="ashFaceLeft" x1="30" y1="65" x2="96" y2="175" gradientUnits="userSpaceOnUse">
      <stop offset="0%" stopColor="#00E5FF" />
      <stop offset="100%" stopColor="#0284C7" />
    </linearGradient>
    <linearGradient id="ashFaceRight" x1="104" y1="65" x2="170" y2="175" gradientUnits="userSpaceOnUse">
      <stop offset="0%" stopColor="#38BDF8" />
      <stop offset="100%" stopColor="#0369A1" />
    </linearGradient>
  </defs>

  {/* TOP FACE: S */}
  <g fill="url(#ashFaceTop)">
    <path d="M 60,44 L 100,21 L 165,58 L 142,71 L 100,47 L 60,70 L 37,57 Z" />
    <path d="M 65,73 L 107,49 L 135,65 L 93,89 Z" />
    <path d="M 58,100 L 35,87 L 100,50 L 140,73 L 140,97 L 100,74 L 58,98 Z" />
  </g>

  {/* LEFT FACE: A */}
  <g fill="url(#ashFaceLeft)">
    <path fill-rule="evenodd" clip-rule="evenodd" d="M 31,64 L 95,101 L 95,174 L 75,162 L 75,134 L 51,120 L 51,148 L 31,136 Z M 51,104 L 75,118 L 75,90 L 51,76 Z" />
  </g>

  {/* RIGHT FACE: H */}
  <g fill="url(#ashFaceRight)">
    <path d="M 105,101 L 125,89 L 125,123 L 149,109 L 149,75 L 169,64 L 169,136 L 149,148 L 149,124 L 125,138 L 125,174 L 105,162 Z" />
  </g>
</svg>
